# xmcd
#
# Track frame offsets:
#	150
#	14832
#	29107
#	42358
#	53789
#	66414
#	79262
#	88971
#	99660
#	111827
#	130497
#	139046
#	151970
#	164399
#	175967
#	191233
#	202881
#	215022
#	221501
#	227305
#	244983
#	254332
#	267966
#	282132
#	291319
#	305008
#	316805
#	327643
#
# Disc length: 4514 seconds
#
# Revision: 2
# Processed by: cddbd v1.5.1PL2 Copyright (c) Steve Scherf et al.
# Submitted via: EasyCDDAExtractor 9.0.0.1
#
DISCID=ba11a01c
DTITLE=Various Artist - Classic Bluegrass, Vol.2 (Smithsonian Folkways)
DYEAR=2005
DGENRE=Bluegrass
TTITLE0=David Johnson - Blue Grass Breakdown
TTITLE1=The Country Gentleman - Roving Gambler
TTITLE2=Doc Watson, Fred Price and Clint Howard - Daniel Prayed
TTITLE3=Half and Half - Fourteen-Carat Mind
TTITLE4=Hazel Dickens and Alice Gerrard - Won't You Come and Sing for Me
TTITLE5=Jerry Stuart, Pete Kuykendall, Smiley Hobbs and Tom Gray - Rocky Run
TTITLE6=Red Clay Ramblers - The Girl Behind the Bar
TTITLE7=B. Lilly, Chubby Anthony and Don Stover - Ain't Nobody Gonna Miss Me
TTITLE8=Red Allen and Frank Wakefield - Are You Afraid to Die
TTITLE9=Bill Monroe and Peter Rowan - Walls of Time
TTITLE10=Friendly City Playboys - Back Up and Push
TTITLE11=Ola Belle Reed - I've Endured
TTITLE12=Marley Allen - Carolina in the Pines
TTITLE13=Eric Weissberg - Jesse James
TTITLE14=The Georgia Pals - Two Orphans
TTITLE15=Nashville Grass - China Grove, My Home Town
TTITLE16=Bill Price - Bluegrass Spectacular
TTITLE17=Sonny Miller - Stoney Creek
TTITLE18=Larry Richardson - Little Maggie
TTITLE19=John Hartford - Miss Ferris
TTITLE20=Earl Taylor - Foggy Mountain Top
TTITLE21=Lilly Brothers and Don Stover - Sinner, You Better Get Ready
TTITLE22=Doc Watson - Sitting on Top of the World
TTITLE23=Bob Everhart - Renegade
TTITLE24=Bill Price - Possum Holler
TTITLE25=Tom Morgan - Red Wing
TTITLE26=Red Allen - I'll Take the Blame
TTITLE27=Bill Monroe and Doc Watson - Watson's Blues
EXTD=
EXTT0=
EXTT1=
EXTT2=
EXTT3=
EXTT4=
EXTT5=
EXTT6=
EXTT7=
EXTT8=
EXTT9=
EXTT10=
EXTT11=
EXTT12=
EXTT13=
EXTT14=
EXTT15=
EXTT16=
EXTT17=
EXTT18=
EXTT19=
EXTT20=
EXTT21=
EXTT22=
EXTT23=
EXTT24=
EXTT25=
EXTT26=
EXTT27=
PLAYORDER=
